#N struct 1004-scope float x float y float x1 float y1 float c1 float c2 float c3 float c4 array vector-min 1004-scope-element array vector-max 1004-scope-element float curx;
#N struct 1004-scope-element float y;
#N canvas 336 25 835 837 12;
#X floatatom 475 107 5 0 0 0 - - - 0;
#X obj 471 177 / 127;
#X obj 470 144 clip 0 127;
#X obj 665 88 notein;
#X obj 672 136 pack 0 0;
#X obj 678 217 sel 0 100;
#X msg 663 282 0;
#X msg 697 283 1;
#X obj 665 326 s 1-on_off_rcv;
#X floatatom 438 289 5 0 0 0 - - - 0;
#X floatatom 669 406 5 0 0 0 - - - 0;
#X obj 673 458 / 127;
#X obj 669 431 clip 0 127;
#X text 505 442 pitch?;
#X obj 445 357 -;
#X obj 502 339 i;
#X floatatom 445 381 5 0 0 0 - - - 0;
#X obj 534 295 bng 19 250 50 0 empty empty empty 0 -10 0 12 #fcfcfc #000000 #000000;
#X obj 554 388 i;
#X obj 552 350 bng 19 250 50 0 empty empty empty 0 -10 0 12 #fcfcfc #000000 #000000;
#X obj 448 454 / 1;
#X floatatom 448 493 5 0 0 0 - - - 0;
#X obj 443 578 s 1-sample_offset_rcv;
#X obj 447 556 line;
#X msg 447 532 \$1 30;
#X obj 38 48 ys.granular_main 1 musicbox.wav;
#X obj 678 545 s 1-grain_pitch_rcv;
#X floatatom 673 482 5 0 0 0 - - - 0;
#X obj 479 205 * 0.5;
#X obj 470 237 s 1-grain_size_rcv;
#X obj 438 265 ctlin 50;
#X obj 475 83 ctlin 52;
#X obj 669 382 ctlin 51;
#X obj 790 216 sel 0 100;
#X msg 775 281 0;
#X msg 809 282 1;
#X obj 777 325 s 1-record_rcv;
#X obj 678 193 route 61 60;
#X obj 687 512 - 0.2;
#X connect 0 0 2 0;
#X connect 1 0 28 0;
#X connect 2 0 1 0;
#X connect 3 0 4 0;
#X connect 3 1 4 1;
#X connect 4 0 37 0;
#X connect 5 0 6 0;
#X connect 5 1 7 0;
#X connect 6 0 8 0;
#X connect 7 0 8 0;
#X connect 9 0 15 1;
#X connect 9 0 14 0;
#X connect 10 0 12 0;
#X connect 11 0 27 0;
#X connect 12 0 11 0;
#X connect 14 0 16 0;
#X connect 15 0 14 1;
#X connect 16 0 18 1;
#X connect 16 0 20 0;
#X connect 17 0 15 0;
#X connect 18 0 20 1;
#X connect 19 0 18 0;
#X connect 20 0 21 0;
#X connect 21 0 24 0;
#X connect 23 0 22 0;
#X connect 24 0 23 0;
#X connect 27 0 38 0;
#X connect 28 0 29 0;
#X connect 30 0 9 0;
#X connect 31 0 0 0;
#X connect 32 0 10 0;
#X connect 33 0 34 0;
#X connect 33 1 35 0;
#X connect 34 0 36 0;
#X connect 35 0 36 0;
#X connect 37 0 5 0;
#X connect 37 1 33 0;
#X connect 38 0 26 0;
