#N canvas 151 52 1067 661 12;
#X obj 76 124 teensy_comport;
#X obj 309 26 r analog0;
#X floatatom 318 155 5 0 0 0 - - - 0;
#X floatatom 321 239 5 0 0 0 - - - 0;
#X obj 318 131 - 505;
#X obj 321 200 / -390;
#X obj 318 270 * 24;
#X obj 318 318 mtof;
#X msg 314 350 \$1 10;
#X obj 314 374 line~;
#X obj 517 552 *~ 0.3;
#X obj 519 638 dac~;
#X floatatom 309 50 5 0 0 0 - - - 0;
#X msg 458 216 0;
#X msg 492 217 1;
#X obj 466 172 sel 0 1;
#X obj 459 89 r digital1;
#X obj 459 137 change;
#X obj 545 598 *~;
#X msg 464 253 \$1 5;
#X obj 464 277 line~;
#X msg 612 56 \; pd dsp 1;
#X obj 569 206 loadbang;
#X obj 549 180 print;
#X obj 816 322 *~;
#X floatatom 816 237 5 0 0 0 - - - 0;
#X floatatom 746 282 5 0 0 0 - - - 0;
#X obj 746 352 +~;
#X floatatom 834 292 4 0 0 0 - - - 0;
#X text 721 239 carrier;
#X text 720 257 frequency;
#X obj 746 398 osc~;
#X text 654 314 add modulator;
#X text 873 304 index;
#X text 875 285 modulation;
#X obj 816 262 osc~;
#X obj 797 96 r analog1;
#X obj 797 120 / 1024;
#X obj 812 161 * 300;
#X obj 946 211 / 1024;
#X obj 934 148 r analog2;
#X floatatom 374 345 5 0 0 0 - - - 0;
#X obj 429 459 osc~ 300;
#X obj 318 294 + 50;
#X connect 1 0 12 0;
#X connect 2 0 5 0;
#X connect 3 0 6 0;
#X connect 4 0 2 0;
#X connect 5 0 3 0;
#X connect 6 0 43 0;
#X connect 7 0 8 0;
#X connect 7 0 41 0;
#X connect 8 0 9 0;
#X connect 9 0 27 0;
#X connect 10 0 18 0;
#X connect 12 0 4 0;
#X connect 13 0 19 0;
#X connect 14 0 19 0;
#X connect 15 0 14 0;
#X connect 15 1 13 0;
#X connect 16 0 17 0;
#X connect 17 0 15 0;
#X connect 17 0 23 0;
#X connect 18 0 11 0;
#X connect 18 0 11 1;
#X connect 19 0 20 0;
#X connect 20 0 18 1;
#X connect 22 0 21 0;
#X connect 24 0 27 1;
#X connect 25 0 35 0;
#X connect 27 0 31 0;
#X connect 28 0 24 1;
#X connect 31 0 10 0;
#X connect 35 0 24 0;
#X connect 36 0 37 0;
#X connect 37 0 38 0;
#X connect 38 0 25 0;
#X connect 40 0 39 0;
#X connect 40 0 28 0;
#X connect 43 0 7 0;
