#N canvas 11 214 758 558 12;
#X obj 76 124 teensy_comport;
#X obj 309 26 r analog0;
#X floatatom 318 155 5 0 0 0 - - - 0;
#X floatatom 321 239 5 0 0 0 - - - 0;
#X obj 318 131 - 505;
#X obj 321 200 / -390;
#X obj 318 270 * 24;
#X obj 318 294 + 35;
#X obj 318 318 mtof;
#X msg 314 350 \$1 10;
#X obj 314 374 line~;
#X obj 321 411 osc~;
#X obj 321 445 *~ 0.3;
#X obj 323 531 dac~;
#X floatatom 309 50 5 0 0 0 - - - 0;
#X msg 421 398 0;
#X msg 455 399 1;
#X obj 429 354 sel 0 1;
#X obj 422 271 r digital1;
#X obj 422 319 change;
#X obj 349 491 *~;
#X msg 427 435 \$1 5;
#X obj 427 459 line~;
#X msg 701 711 \; pd dsp 1;
#X obj 695 679 loadbang;
#X connect 1 0 14 0;
#X connect 2 0 5 0;
#X connect 3 0 6 0;
#X connect 4 0 2 0;
#X connect 5 0 3 0;
#X connect 6 0 7 0;
#X connect 7 0 8 0;
#X connect 8 0 9 0;
#X connect 9 0 10 0;
#X connect 10 0 11 0;
#X connect 11 0 12 0;
#X connect 12 0 20 0;
#X connect 14 0 4 0;
#X connect 15 0 21 0;
#X connect 16 0 21 0;
#X connect 17 0 16 0;
#X connect 17 1 15 0;
#X connect 18 0 19 0;
#X connect 19 0 17 0;
#X connect 20 0 13 0;
#X connect 20 0 13 1;
#X connect 21 0 22 0;
#X connect 22 0 20 1;
#X connect 24 0 23 0;
