#N canvas 404 25 908 657 12;
#X obj 44 223 list prepend;
#X obj 44 245 list trim;
#X msg 28 71 devices;
#X msg 156 129 close;
#X msg 100 68 open 2;
#X floatatom 52 315 5 0 0 0 - - - 0;
#X floatatom 107 321 5 0 0 0 - - - 0;
#X obj 33 33 loadbang;
#X msg 101 40 open 1;
#X floatatom 162 315 5 0 0 0 - - - 0;
#X floatatom 215 317 5 0 0 0 - - - 0;
#X msg 223 135 72;
#X msg 253 135 76;
#X obj 223 112 sel 1 0;
#X obj 246 79 tgl 15 0 empty empty empty 17 7 0 10 #fcfcfc #000000 #000000 0 1;
#X obj 44 201 serial_print any;
#X obj 246 25 r dsp_on_bang;
#X msg 248 50 1;
#X obj 313 92 r loop_light;
#X obj 44 179 comport 0 9600;
#X msg 111 102 open 3;
#X obj 192 77 loadbang;
#X obj 45 358 s analog0;
#X obj 121 358 s analog1;
#X obj 194 361 s analog2;
#X msg 158 38 open 0;
#X obj 367 342 s digital0;
#X obj 493 337 s digital1;
#X floatatom 326 374 5 0 0 0 - - - 0;
#X floatatom 384 377 5 0 0 0 - - - 0;
#X obj 52 295 route analog0 analog1 analog2 analog3 digital0 digital1 digital2, f 71;
#X obj 580 336 s digital2;
#X floatatom 472 378 5 0 0 0 - - - 0;
#X connect 0 0 1 0;
#X connect 1 0 30 0;
#X connect 2 0 19 0;
#X connect 3 0 19 0;
#X connect 4 0 19 0;
#X connect 5 0 22 0;
#X connect 6 0 23 0;
#X connect 7 0 2 0;
#X connect 8 0 19 0;
#X connect 9 0 24 0;
#X connect 11 0 19 0;
#X connect 12 0 19 0;
#X connect 13 0 11 0;
#X connect 13 1 12 0;
#X connect 14 0 13 0;
#X connect 15 0 0 0;
#X connect 15 1 0 1;
#X connect 16 0 17 0;
#X connect 17 0 14 0;
#X connect 18 0 14 0;
#X connect 19 0 15 0;
#X connect 20 0 19 0;
#X connect 21 0 25 0;
#X connect 25 0 19 0;
#X connect 30 0 5 0;
#X connect 30 1 6 0;
#X connect 30 2 9 0;
#X connect 30 3 10 0;
#X connect 30 4 26 0;
#X connect 30 4 28 0;
#X connect 30 5 27 0;
#X connect 30 5 29 0;
#X connect 30 6 31 0;
#X connect 30 6 32 0;
