#N canvas 404 25 908 657 12;
#X obj 347 483 s playstop_rcv;
#X obj 44 223 list prepend;
#X obj 44 245 list trim;
#X msg 28 71 devices;
#X msg 156 129 close;
#X msg 100 68 open 2;
#X floatatom 52 315 5 0 0 0 - - - 0;
#X floatatom 107 321 5 0 0 0 - - - 0;
#X obj 33 33 loadbang;
#X msg 101 40 open 1;
#X floatatom 162 315 5 0 0 0 - - - 0;
#X floatatom 215 317 5 0 0 0 - - - 0;
#X floatatom 317 348 5 0 0 0 - - - 0;
#X msg 223 135 72;
#X msg 253 135 76;
#X obj 223 112 sel 1 0;
#X obj 246 79 tgl 15 0 empty empty empty 17 7 0 10 #fcfcfc #000000 #000000 0 1;
#X obj 44 201 serial_print any;
#X obj 353 404 change;
#X obj 353 425 sel 0;
#X obj 350 450 tgl 15 0 empty empty empty 17 7 0 10 #fcfcfc #000000 #000000 0 1;
#X obj 246 25 r dsp_on_bang;
#X msg 248 50 1;
#X obj 313 92 r loop_light;
#X obj 44 179 comport 0 9600;
#X msg 111 102 open 3;
#X obj 192 77 loadbang;
#X obj 53 294 route analog0 analog1 analog2 analog3 digital0 digital1;
#X obj 45 358 s analog0;
#X obj 121 358 s analog1;
#X obj 194 361 s analog2;
#X connect 1 0 2 0;
#X connect 2 0 27 0;
#X connect 3 0 24 0;
#X connect 4 0 24 0;
#X connect 5 0 24 0;
#X connect 6 0 28 0;
#X connect 7 0 29 0;
#X connect 8 0 3 0;
#X connect 9 0 24 0;
#X connect 10 0 30 0;
#X connect 12 0 18 0;
#X connect 13 0 24 0;
#X connect 14 0 24 0;
#X connect 15 0 13 0;
#X connect 15 1 14 0;
#X connect 16 0 15 0;
#X connect 17 0 1 0;
#X connect 17 1 1 1;
#X connect 18 0 19 0;
#X connect 19 0 20 0;
#X connect 20 0 0 0;
#X connect 21 0 22 0;
#X connect 22 0 16 0;
#X connect 23 0 16 0;
#X connect 24 0 17 0;
#X connect 25 0 24 0;
#X connect 26 0 5 0;
#X connect 27 0 6 0;
#X connect 27 1 7 0;
#X connect 27 2 10 0;
#X connect 27 3 11 0;
#X connect 27 4 12 0;
