#N struct 1004-scope float x float y float x1 float y1 float c1 float c2 float c3 float c4 array vector-min 1004-scope-element array vector-max 1004-scope-element float curx;
#N struct 1004-scope-element float y;
#N canvas 336 25 835 837 12;
#X floatatom 475 107 5 0 0 0 - - - 0;
#X obj 665 88 notein;
#X obj 672 136 pack 0 0;
#X obj 678 217 sel 0 100;
#X msg 663 282 0;
#X msg 697 283 1;
#X obj 665 326 s 1-on_off_rcv;
#X floatatom 438 289 5 0 0 0 - - - 0;
#X floatatom 669 406 5 0 0 0 - - - 0;
#X text 505 442 pitch?;
#X obj 502 339 i;
#X floatatom 445 409 5 0 0 0 - - - 0;
#X obj 502 309 bng 19 250 50 0 empty empty empty 0 -10 0 12 #fcfcfc #000000 #000000;
#X obj 554 388 i;
#X obj 552 350 bng 19 250 50 0 empty empty empty 0 -10 0 12 #fcfcfc #000000 #000000;
#X floatatom 448 493 5 0 0 0 - - - 0;
#X obj 443 578 s 1-sample_offset_rcv;
#X obj 447 556 line;
#X msg 447 532 \$1 30;
#X obj 38 48 ys.granular_main 1 musicbox.wav;
#X obj 670 624 s 1-grain_pitch_rcv;
#X floatatom 673 482 5 0 0 0 - - - 0;
#X obj 470 237 s 1-grain_size_rcv;
#X obj 790 216 sel 0 100;
#X msg 775 281 0;
#X msg 809 282 1;
#X obj 777 325 s 1-record_rcv;
#X obj 678 193 route 61 60;
#X obj 628 243 loadbang;
#X obj 145 661 teensy_comport;
#X obj 438 265 r analog0;
#X obj 525 270 loadbang;
#X obj 448 454 / -390;
#X obj 445 385 - 505;
#X obj 475 83 r analog2;
#X obj 669 382 r analog1;
#X obj 673 458 / 1024;
#X obj 687 512 - 0.3;
#X floatatom 687 536 5 0 0 0 - - - 0;
#X obj 674 575 clip 0.1 10;
#X floatatom 674 599 5 0 0 0 - - - 0;
#X obj 475 130 / 1024;
#X floatatom 475 154 5 0 0 0 - - - 0;
#X connect 0 0 41 0;
#X connect 1 0 2 0;
#X connect 1 1 2 1;
#X connect 2 0 27 0;
#X connect 3 0 4 0;
#X connect 3 1 5 0;
#X connect 4 0 6 0;
#X connect 5 0 6 0;
#X connect 7 0 10 1;
#X connect 7 0 33 0;
#X connect 8 0 36 0;
#X connect 10 0 33 1;
#X connect 11 0 13 1;
#X connect 11 0 32 0;
#X connect 12 0 10 0;
#X connect 13 0 32 1;
#X connect 14 0 13 0;
#X connect 15 0 18 0;
#X connect 17 0 16 0;
#X connect 18 0 17 0;
#X connect 21 0 37 0;
#X connect 23 0 24 0;
#X connect 23 1 25 0;
#X connect 24 0 26 0;
#X connect 25 0 26 0;
#X connect 27 0 3 0;
#X connect 27 1 23 0;
#X connect 28 0 4 0;
#X connect 30 0 7 0;
#X connect 31 0 12 0;
#X connect 32 0 15 0;
#X connect 33 0 11 0;
#X connect 34 0 0 0;
#X connect 35 0 8 0;
#X connect 36 0 21 0;
#X connect 37 0 38 0;
#X connect 38 0 39 0;
#X connect 39 0 40 0;
#X connect 41 0 42 0;
#X connect 42 0 22 0;
