#N struct 1037-scope float x float y float x1 float y1 float c1 float c2 float c3 float c4 array vector-min 1037-scope-element array vector-max 1037-scope-element float curx;
#N struct 1037-scope-element float y;
#N canvas 89 25 1248 847 12;
#X floatatom 475 107 5 0 0 0 - - - 0;
#X obj 665 88 notein;
#X obj 672 136 pack 0 0;
#X obj 678 217 sel 0 100;
#X msg 663 282 0;
#X msg 697 283 1;
#X obj 665 326 s 1-on_off_rcv;
#X floatatom 438 289 5 0 0 0 - - - 0;
#X floatatom 669 406 5 0 0 0 - - - 0;
#X obj 502 339 i;
#X floatatom 445 409 5 0 0 0 - - - 0;
#X obj 502 309 bng 19 250 50 0 empty empty empty 0 -10 0 12 #fcfcfc #000000 #000000;
#X obj 552 350 bng 19 250 50 0 empty empty empty 0 -10 0 12 #fcfcfc #000000 #000000;
#X floatatom 448 493 5 0 0 0 - - - 0;
#X obj 443 578 s 1-sample_offset_rcv;
#X obj 447 556 line;
#X msg 447 532 \$1 30;
#X obj 38 48 ys.granular_main 1 musicbox.wav;
#X obj 670 624 s 1-grain_pitch_rcv;
#X floatatom 673 482 5 0 0 0 - - - 0;
#X obj 470 237 s 1-grain_size_rcv;
#X obj 790 216 sel 0 100;
#X msg 775 281 0;
#X msg 809 282 1;
#X obj 777 325 s 1-record_rcv;
#X obj 678 193 route 61 60;
#X obj 628 243 loadbang;
#X obj 145 661 teensy_comport;
#X obj 438 265 r analog0;
#X obj 525 270 loadbang;
#X obj 475 83 r analog2;
#X obj 669 382 r analog1;
#X obj 673 458 / 1024;
#X obj 687 512 - 0.3;
#X floatatom 687 536 5 0 0 0 - - - 0;
#X obj 674 575 clip 0.1 10;
#X floatatom 674 599 5 0 0 0 - - - 0;
#X obj 475 130 / 1024;
#X floatatom 475 154 5 0 0 0 - - - 0;
#X msg 263 705 0;
#X msg 297 706 1;
#X obj 265 749 s 1-on_off_rcv;
#X obj 271 661 sel 0 1;
#X msg 459 707 0;
#X msg 493 708 1;
#X obj 467 663 sel 0 1;
#X obj 455 786 s 1-record_rcv;
#X msg 701 711 \; pd dsp 1;
#X obj 695 679 loadbang;
#X obj 264 578 r digital1;
#X obj 468 604 r digital0;
#X obj 264 626 change;
#X obj 468 636 change;
#X obj 609 698 +;
#X floatatom 609 722 5 0 0 0 - - - 0;
#X obj 607 752 % 4;
#X obj 612 776 sel 0 1 2 3;
#X obj 590 858 s 1-newsound;
#X msg 587 816 boop.wav;
#X msg 673 817 chick.wav;
#X msg 755 822 hello.wav;
#X msg 830 822 musicbox.wav;
#X obj 499 736 print newsound;
#X obj 387 751 print play;
#X obj 581 513 print a0;
#X obj 445 385 - 505;
#X obj 448 454 / -390;
#X msg 355 604;
#X connect 0 0 37 0;
#X connect 1 0 2 0;
#X connect 1 1 2 1;
#X connect 2 0 25 0;
#X connect 3 0 4 0;
#X connect 3 1 5 0;
#X connect 4 0 6 0;
#X connect 5 0 6 0;
#X connect 7 0 9 1;
#X connect 7 0 65 0;
#X connect 8 0 32 0;
#X connect 10 0 66 0;
#X connect 11 0 9 0;
#X connect 13 0 16 0;
#X connect 15 0 14 0;
#X connect 16 0 15 0;
#X connect 19 0 33 0;
#X connect 21 0 22 0;
#X connect 21 1 23 0;
#X connect 22 0 24 0;
#X connect 23 0 24 0;
#X connect 25 0 3 0;
#X connect 25 1 21 0;
#X connect 26 0 4 0;
#X connect 28 0 7 0;
#X connect 29 0 11 0;
#X connect 30 0 0 0;
#X connect 31 0 8 0;
#X connect 32 0 19 0;
#X connect 33 0 34 0;
#X connect 34 0 35 0;
#X connect 35 0 36 0;
#X connect 37 0 38 0;
#X connect 38 0 20 0;
#X connect 39 0 41 0;
#X connect 40 0 41 0;
#X connect 42 0 40 0;
#X connect 42 1 39 0;
#X connect 43 0 46 0;
#X connect 44 0 53 0;
#X connect 44 0 62 0;
#X connect 45 0 44 0;
#X connect 45 1 43 0;
#X connect 48 0 47 0;
#X connect 49 0 51 0;
#X connect 50 0 52 0;
#X connect 51 0 42 0;
#X connect 51 0 63 0;
#X connect 52 0 45 0;
#X connect 53 0 54 0;
#X connect 54 0 53 1;
#X connect 54 0 55 0;
#X connect 55 0 56 0;
#X connect 56 0 58 0;
#X connect 56 1 59 0;
#X connect 56 2 60 0;
#X connect 56 3 61 0;
#X connect 58 0 57 0;
#X connect 59 0 57 0;
#X connect 60 0 57 0;
#X connect 61 0 57 0;
#X connect 65 0 10 0;
#X connect 66 0 13 0;
